# xmcd
#
# Track frame offsets:
#	150
#	15099
#	32872
#	47381
#	62853
#	81334
#	91600
#	112324
#	123833
#	141166
#	156630
#	174656
#	187200
#	206901
#	221907
#	241521
#	258345
#	272847
#	285967
#	299783
#
# Disc length: 4216 seconds
#
# Revision: 1
# Processed by: cddbd v1.5.2PL0 Copyright (c) Steve Scherf et al.
# Submitted via: audiograbber 1.83.01
#
DISCID=31107614
DTITLE=Various Artist - The Essential Country Volume 2 - Disc 2
DYEAR=2007
DGENRE=Country
TTITLE0=Brooks and Dunn - Boot Scootin` Boogie
TTITLE1=Adam Brand - Get Loud
TTITLE2=Sawyer Brown - Some Girls Do
TTITLE3=Trick Poney - It`s A Heartache
TTITLE4=Diamond Rio - How Your Love Makes Me Feel
TTITLE5=George Jones - I`m A One Woman Man
TTITLE6=The Highwaymen - Desperados Waiting For A Train
TTITLE7=Dolly Parton - Why`d You Come In Here Lookin` Like That
TTITLE8=Willie Nelson With Ray Charles - Seven Spanish Angels
TTITLE9=Patty Loveless - You Can Feel Bad
TTITLE10=Bella - She Still Believes
TTITLE11=Aaron Tippin - There Ain`t Nothin` Wrong With The Radio
TTITLE12=Clint Black - Like The Rain
TTITLE13=Lorrie Morgan - I Didn`t Know My Own Strength
TTITLE14=Montgomery Gentry - She Couldn`t Change Me
TTITLE15=Ricky Skaggs - Cajun Moon
TTITLE16=Mindy McGready - Guys Do It All The Time
TTITLE17=Lacy J. Dalton - Dream Baby (How Long Must I Dream)
TTITLE18=Ricochet - Daddy`s Money
TTITLE19=David Allan Coe - Mona Lisa Lost Her Smile
EXTD=
EXTT0=
EXTT1=
EXTT2=
EXTT3=
EXTT4=
EXTT5=
EXTT6=
EXTT7=
EXTT8=
EXTT9=
EXTT10=
EXTT11=
EXTT12=
EXTT13=
EXTT14=
EXTT15=
EXTT16=
EXTT17=
EXTT18=
EXTT19=
PLAYORDER=
